<?xml version="1.0" encoding="UTF-8" standalone="no"?>
<!-- Created with Inkscape (http://www.inkscape.org/) -->

<svg
   xmlns:dc="http://purl.org/dc/elements/1.1/"
   xmlns:cc="http://creativecommons.org/ns#"
   xmlns:rdf="http://www.w3.org/1999/02/22-rdf-syntax-ns#"
   xmlns:svg="http://www.w3.org/2000/svg"
   xmlns="http://www.w3.org/2000/svg"
   xmlns:sodipodi="http://sodipodi.sourceforge.net/DTD/sodipodi-0.dtd"
   xmlns:inkscape="http://www.inkscape.org/namespaces/inkscape"
   width="610.20996mm"
   height="90.380241mm"
   viewBox="0 0 2162.1612 320.24495"
   id="svg2"
   version="1.1"
   inkscape:version="0.91 r13725"
   sodipodi:docname="logo3.svg">
  <defs
     id="defs4" />
  <sodipodi:namedview
     id="base"
     pagecolor="#ffffff"
     bordercolor="#666666"
     borderopacity="1.0"
     inkscape:pageopacity="0.0"
     inkscape:pageshadow="2"
     inkscape:zoom="0.35"
     inkscape:cx="1243.1388"
     inkscape:cy="-31.829493"
     inkscape:document-units="px"
     inkscape:current-layer="layer1"
     showgrid="false"
     inkscape:window-width="1680"
     inkscape:window-height="988"
     inkscape:window-x="-8"
     inkscape:window-y="-8"
     inkscape:window-maximized="1"
     fit-margin-top="0"
     fit-margin-left="0"
     fit-margin-right="0"
     fit-margin-bottom="0" />
  <metadata
     id="metadata7">
    <rdf:RDF>
      <cc:Work
         rdf:about="">
        <dc:format>image/svg+xml</dc:format>
        <dc:type
           rdf:resource="http://purl.org/dc/dcmitype/StillImage" />
        <dc:title></dc:title>
      </cc:Work>
    </rdf:RDF>
  </metadata>
  <g
     inkscape:label="Layer 1"
     inkscape:groupmode="layer"
     id="layer1"
     transform="translate(1107.0183,-561.9448)">
    <path
       style="fill:rgba(251,129,41,0.9)"
       d="m -623.51012,875.90608 c -21.10694,-4.48477 -35.44384,-12.26888 -48.20054,-26.17007 -9.98667,-10.88264 -23.50603,-19.83908 -30.04298,-19.9033 -16.39486,-0.16107 -75.73325,-19.65841 -75.69868,-24.87302 0.0143,-2.33567 14.74343,-8.52885 32.7289,-13.76265 74.55736,-21.69636 124.96869,-63.36458 124.96869,-103.29473 0,-16.28501 0.22833,-16.37964 25.9969,-10.7823 14.29828,3.10582 37.83945,12.55567 52.31364,20.99973 63.05517,36.78543 42.95527,97.13946 -41.30673,124.03166 -34.95471,11.15577 -37.3215,21.66063 -10.04856,44.60016 21.26243,17.88403 16.73088,19.23481 -30.71064,9.15452 z m -359.24125,-31.33842 c 12.64911,-9.50184 26.70899,-25.15864 31.24421,-34.79289 7.06145,-15.00078 6.39705,-17.97668 -4.62581,-20.71874 -72.03153,-17.91831 -114.21993,-40.38348 -136.20793,-72.53021 -19.1526,-28.00126 -19.5094,-47.56027 -1.3733,-75.28421 18.5803,-28.40304 47.8424,-46.8863 102.1773,-64.53973 37.79468,-12.2795 55.36339,-14.65988 108.90586,-14.75557 86.98984,-0.15522 133.56565,11.64753 184.59679,46.77935 42.81058,29.47255 54.12764,51.14991 44.89257,85.99022 -9.44498,35.63262 -79.31669,76.1781 -160.51414,93.14406 -21.37002,4.4652 -35.84647,11.43362 -42.47322,20.44497 -21.89067,29.76817 -77.55533,53.53882 -125.37388,53.53882 l -24.24678,0 22.99833,-17.27607 z m 24.66974,-139.24491 c 16.11163,-13.73974 6.36989,-31.37302 -20.31148,-36.76524 -32.80019,-6.6288 -31.22829,-15.41364 1.96933,-11.00587 21.93064,2.9118 25.62465,2.11077 21.90481,-4.75 -6.01244,-11.08906 -43.59254,-16.36895 -63.32083,-8.89639 -23.342,8.84137 -16.66,27.54561 13.1591,36.83461 13.42545,4.18214 24.40992,9.5643 24.40992,11.96036 0,6.28859 -12.96371,5.35599 -29.95752,-2.15515 -21.0215,-9.29144 -35.9494,1.63239 -18.8087,13.7637 15.1961,10.75497 58.80202,11.37818 70.95537,1.01398 z m 53.20099,-13.6422 4.03801,-18.54466 5.77861,20.2653 c 7.57361,26.5604 26.58606,24.46271 39.13831,-4.31815 l 9.27336,-21.26286 0.78758,22.59178 c 0.56781,16.29006 3.93009,22.59178 12.05362,22.59178 8.85886,0 11.26613,-7.38294 11.26613,-34.55213 0,-33.42606 -0.61963,-34.55215 -19.01261,-34.55215 -10.45694,0 -20.59646,3.5881 -22.53227,7.97358 -11.53406,26.12976 -13.04372,26.80869 -20.68454,9.3025 -6.20267,-14.2113 -11.34485,-17.27608 -28.98609,-17.27608 -21.4121,0 -21.44575,0.0548 -21.44575,34.94189 0,30.41194 1.70404,34.7113 13.14381,33.16288 8.48783,-1.14883 14.57424,-8.34817 17.18183,-20.32368 z m 175.49777,14.3807 c 21.01194,-10.87402 12.70436,-30.95184 -15.63791,-37.79402 -37.69209,-9.09939 -38.7499,-14.52572 -2.13477,-10.9508 l 33.51642,3.27241 -17.73123,-11.00257 c -28.82082,-17.88382 -68.64239,-10.52022 -68.64239,12.69297 0,9.78952 6.00843,14.09345 26.28762,18.83022 28.67651,6.69817 35.21055,15.94714 11.26613,15.94714 -8.26182,0 -15.0215,-2.39208 -15.0215,-5.31571 0,-2.92364 -6.75967,-5.31572 -15.0215,-5.31572 -18.04896,0 -19.26238,6.87056 -3.21889,18.22531 14.3439,10.15188 48.06206,10.86893 66.33802,1.41077 z m 322.64527,147.8089 c -8.75641,-16.14999 2.77979,-22.98163 38.16822,-22.60304 39.02767,0.41781 56.59337,9.93113 41.73397,22.60304 -12.66496,10.80041 -24.22409,10.02395 -39.56644,-2.65785 -13.73175,-11.35048 -28.03034,-14.06208 -28.03034,-5.31571 0,2.92363 5.06976,5.31571 11.26611,5.31571 6.19638,0 11.26613,2.39206 11.26613,5.31572 0,8.45048 -30.05817,6.15728 -34.83765,-2.65787 z m 89.91649,-7.35487 c 0,-14.44727 1.71971,-15.28762 29.91419,-14.61822 22.39022,0.53158 31.38801,3.3842 35.77407,11.34166 5.7015,10.34401 5.87417,10.3269 6.38774,-0.63404 0.44614,-9.52624 4.87643,-11.16764 28.69324,-10.63143 29.89092,0.67291 39.13019,5.50633 39.31645,20.56798 0.10131,8.20087 -8.18648,9.3025 -69.98531,9.3025 l -70.10038,0 0,-15.32845 z m 148.25281,3.17965 c -3.45863,-6.47454 -4.79584,-13.56598 -2.97163,-15.7587 6.5104,-7.82553 16.4604,-3.79042 19.66196,7.97357 l 3.25492,11.96035 1.02283,-11.96035 c 1.26474,-14.78896 16.04431,-16.01311 16.04431,-1.32893 0,5.84728 3.60756,10.63143 8.01691,10.63143 4.59891,0 5.98418,-4.53267 3.24922,-10.63143 -4.06032,-9.05416 -1.34967,-10.63143 18.27072,-10.63143 18.03122,0 23.038395,2.31063 23.038395,10.63143 0,5.84728 3.741412,10.63143 8.314331,10.63143 4.572837,0 6.368902,-3.58811 3.991081,-7.97358 -5.318979,-9.81009 1.661745,-23.9207 11.833992,-23.9207 4.130927,0 5.606878,3.5115 3.279814,7.80336 -4.948784,9.12729 6.87788,16.17365 13.814232,8.23048 7.623184,-8.72973 33.8740601,-6.29647 33.8740601,3.13988 0,5.40921 -4.1320943,7.42005 -11.2661111,5.48253 -6.196372,-1.68285 -11.266111,-0.74272 -11.266111,2.08913 0,9.96004 23.9865405,5.01908 27.9698037,-5.76145 6.193281,-16.76156 35.2395373,-11.57783 38.2345133,6.82352 2.299805,14.1304 1.397156,14.49595 -33.7983705,13.68796 -19.8887685,-0.45661 -40.3861445,-3.0965 -45.5497845,-5.86653 -6.06463,-3.25338 -9.388426,-3.06488 -9.388426,0.53237 0,3.37065 -22.369208,5.6514 -56.671179,5.77818 -51.73713,0.19137 -57.21863,-0.81554 -62.95948,-11.56252 z m 222.277609,8.60497 c -2.753951,-1.94905 -5.007178,-10.52066 -5.007178,-19.04795 0,-21.35818 18.025108,-16.09902 19.574965,5.71135 1.15199,16.2117 -3.930836,20.86493 -14.567787,13.3366 z m 27.751937,-4.42975 c -6.643931,-12.25383 3.239904,-24.90901 17.91575,-22.93922 7.950954,1.06725 14.107884,7.53986 15.543044,16.34003 1.92276,11.78993 -0.63238,14.57277 -13.3795,14.57277 -8.66589,0 -17.701549,-3.58811 -20.079294,-7.97358 z m 64.694744,-5.66177 c -4.0287,-7.49941 -7.32486,-14.64882 -7.32486,-15.88759 0,-4.68745 41.55655,0.084 46.8272,5.37683 3.58709,3.60204 5.55828,3.21586 5.63306,-1.10354 0.0601,-3.65455 5.18477,-6.64464 11.38114,-6.64464 6.19634,0 11.26611,-2.39207 11.26611,-5.31571 0,-2.92364 3.37983,-5.31571 7.51074,-5.31571 4.13092,0 7.51078,9.56829 7.51078,21.26285 0,22.76449 -11.7965,29.10726 -17.30104,9.30249 l -3.32425,-11.96035 -5.58486,11.96035 c -6.04891,12.95419 -22.79112,16.03347 -28.90165,5.31572 -3.03067,-5.31572 -3.90687,-5.31572 -4.38123,0 -1.03322,11.57747 -15.69898,7.1794 -23.31114,-6.9907 z m 96.93233,9.64856 c -3.86549,-17.25156 -1.45297,-29.9871 6.01647,-31.76054 5.29635,-1.25753 10.11452,4.99247 11.94188,15.49069 l 3.06326,17.59878 1.20194,-19.93392 c 0.83196,-13.79716 4.67032,-19.93393 12.46816,-19.93393 6.19636,0 11.26611,2.39207 11.26611,5.31571 0,2.92364 5.06974,5.31571 11.26616,5.31571 6.41806,0 11.64104,5.14679 12.13734,11.96036 0.60164,8.26376 1.89482,9.22509 4.183,3.11043 4.41141,-11.78882 24.38714,-16.72595 37.2069,-9.19591 5.79099,3.40151 10.31412,3.79647 10.31412,0.90064 0,-2.83668 10.13951,-5.36165 22.53226,-5.61106 20.06009,-0.40346 22.53225,1.25728 22.53225,15.1382 0,12.94387 -3.08234,15.59163 -18.15101,15.59163 -9.983,0 -19.86518,-2.9901 -21.96046,-6.64465 -2.82886,-4.93426 -5.40661,-5.06975 -10.01431,-0.52625 -3.41264,3.36506 -18.68847,6.11593 -33.9462,6.11306 -22.39758,-0.005 -28.3494,-2.2067 -30.89785,-11.43399 -3.09324,-11.19956 -3.17707,-11.18888 -4.17937,0.53158 -0.81967,9.5846 -5.49854,11.96035 -23.55507,11.96035 -12.39276,0 -22.93424,-1.79405 -23.42558,-3.98679 z m 106.04384,-11.96035 c 0,-2.92366 -3.37983,-5.31572 -7.51074,-5.31572 -4.13094,0 -7.51076,2.39206 -7.51076,5.31572 0,2.92363 3.37982,5.31571 7.51076,5.31571 4.13091,0 7.51074,-2.39208 7.51074,-5.31571 z m 70.48119,8.28406 c -5.64351,-10.4087 -0.80199,-24.84246 8.24288,-24.57392 9.31995,0.27695 12.07564,32.237 2.77961,32.237 -3.77718,0 -8.73728,-3.44836 -11.02249,-7.66308 z m 48.40355,-13.59978 c -1.98884,-14.7603 0.0676,-21.26285 6.72183,-21.26285 5.27284,0 9.61331,1.79405 9.64551,3.98679 0.11196,7.59264 35.98223,16.22058 43.96069,10.57385 11.37194,-8.04847 31.08827,-0.42685 31.08827,12.01793 0,13.26961 -18.7624,19.46322 -33.22539,10.96801 -7.19059,-4.22359 -12.03651,-4.41109 -15.36909,-0.59472 -2.67701,3.06562 -12.76244,5.57385 -22.41202,5.57385 -14.98419,0 -17.96286,-3.10321 -20.4098,-21.26286 z m 31.33027,8.28731 c 0,-1.28928 -3.37983,-3.82254 -7.51074,-5.62946 -4.13092,-1.80692 -7.51074,-0.75207 -7.51074,2.34413 0,3.09619 3.37982,5.62945 7.51074,5.62945 4.13091,0 7.51074,-1.05485 7.51074,-2.34412 z m 67.59678,-3.35205 c 0,-13.67551 2.74486,-16.17017 16.89918,-15.35874 30.6507,1.75721 44.13941,-0.13233 39.43144,-5.52366 -2.55304,-2.92364 0.62714,-5.31571 7.06748,-5.31571 8.65381,0 11.70941,5.54858 11.70941,21.26285 0,19.34123 -1.76052,21.26286 -19.48004,21.26286 -13.16348,0 -20.75379,-3.44736 -23.40824,-10.63143 -2.16053,-5.84729 -7.14159,-10.63143 -11.0691,-10.63143 -3.92754,0 -4.99549,4.78414 -2.37326,10.63143 3.38337,7.54469 1.34969,10.63143 -7.00459,10.63143 -8.13408,0 -11.77228,-5.046 -11.77228,-16.3276 z m 60.08599,0.38061 c 0,-2.92364 -3.37982,-5.31572 -7.51074,-5.31572 -4.13091,0 -7.51074,2.39208 -7.51074,5.31572 0,2.92365 3.37983,5.31571 7.51074,5.31571 4.13092,0 7.51074,-2.39206 7.51074,-5.31571 z m 25.24837,7.97358 c -6.64393,-12.25385 3.23993,-24.90901 17.91579,-22.93922 7.95093,1.06723 14.10788,7.53986 15.54305,16.34002 1.92273,11.78994 -0.63244,14.57276 -13.37952,14.57276 -8.66591,0 -17.70156,-3.58811 -20.07932,-7.97356 z m 42.34839,-7.53062 c 0,-14.79713 1.51861,-15.50412 33.30027,-15.50412 31.44646,0 33.21607,0.78911 31.78714,14.17519 -1.10233,10.3269 -6.1905,14.64809 -18.74193,15.91684 -12.89852,1.30389 -16.64045,-0.56155 -14.8879,-7.42211 1.28744,-5.04 -2.23864,-10.29288 -7.83581,-11.67299 -7.37953,-1.81962 -8.7887,0.58562 -5.1269,8.75104 3.67756,8.20066 1.85085,11.26033 -6.7226,11.26033 -7.99839,0 -11.77227,-4.97025 -11.77227,-15.50418 z M -398.18756,798.05532 c -6.93469,-7.94136 2.71421,-15.94714 19.22016,-15.94714 20.31371,0 18.24075,-11.08294 -7.95405,-42.52571 -12.39272,-14.87554 -22.53227,-29.33323 -22.53227,-32.12823 0,-2.79494 13.88575,-5.08176 30.85725,-5.08176 28.28326,0 30.50216,1.00137 26.60015,12.00453 -5.20688,14.6828 5.59853,30.61632 12.33582,18.1903 2.35777,-4.34861 2.43395,-12.92142 0.16905,-19.0507 -3.62002,-9.79798 -0.83624,-11.14413 23.04622,-11.14413 18.42807,0 27.16361,2.42172 27.16361,7.53061 0,4.14179 -2.71852,8.32792 -6.04112,9.3025 -3.32262,0.97452 -15.74299,18.05801 -27.60074,37.96327 -11.85783,19.90528 -27.50624,38.44383 -34.77427,41.1968 -17.18257,6.50833 -34.65234,6.37444 -40.48975,-0.31045 z m 121.33608,-36.29962 c -16.49864,-12.90279 -15.8092,-39.62408 1.30499,-50.58578 20.55183,-13.16351 65.3895,-11.46683 79.72333,3.01679 15.94771,16.11437 14.67753,33.9142 -3.3295,46.65861 -19.17908,13.57395 -60.88127,14.06257 -77.69882,0.91038 z m 50.77796,-14.94853 c 6.38083,-11.76863 -2.28454,-29.57053 -13.14798,-27.01074 -16.5989,3.91124 -15.28466,35.73318 1.47581,35.73318 3.81855,0 9.07104,-3.92512 11.67217,-8.72244 z m 65.2257,17.75916 c -4.54404,-3.21601 -8.26184,-13.26272 -8.26184,-22.326 0,-9.0633 -3.7613,-19.14078 -8.3585,-22.39441 -12.62384,-8.9345 -0.98187,-17.47344 23.82329,-17.47344 21.17235,0 22.08896,0.9926 22.08896,23.92071 0,17.71902 2.92087,23.9207 11.26613,23.9207 12.76257,0 15.83903,-23.95089 3.75537,-29.23642 -17.8592,-7.81186 -6.96636,-18.60499 18.776893,-18.60499 24.850364,0 26.287593,0.98085 26.287593,17.94052 0,9.8673 2.044834,25.17655 4.544041,34.02058 l 4.544,16.08004 -45.102087,0 c -24.80611,0 -48.81985,-2.63129 -53.36385,-5.84729 z m 108.154789,-28.12156 0,-35.03205 24.272353,2.78772 c 13.34977,1.53327 26.2236354,0.55316 28.60853769,-2.17795 8.12925541,-9.30926 18.47124931,-4.99603 18.47124931,7.70358 0,8.19875 -5.30056,13.65033 -15.0215229,15.44948 -16.3375911,3.02375 -20.1031731,19.31551 -6.6630042,28.82777 12.957409,9.17056 0.7450773,17.47343 -25.7009459,17.47343 l -23.966667,0 0,-35.03198 z M 83.664574,761.7557 c -15.544256,-12.1564 -16.12648,-40.06066 -1.058455,-50.72498 7.214421,-5.10607 25.061941,-7.97327 48.819851,-7.84303 36.26027,0.19881 37.44816,0.69498 37.44816,15.64218 0,17.83837 -18.6476,21.16931 -34.34245,6.13439 -7.30458,-6.9975 -11.87165,-7.79597 -18.43152,-3.2225 -14.63283,10.20187 -5.34799,25.78393 15.54656,26.09058 28.20161,0.41411 39.96861,6.92814 29.16168,16.1441 -12.8243,10.93633 -62.13514,9.51683 -77.143826,-2.22074 z m 96.475686,-43.43609 0,-53.15713 20.65455,0 c 19.07131,0 20.65457,1.62118 20.65457,21.14888 0,20.72374 0.38383,21.02509 19.09527,14.99122 26.98328,-8.70134 45.33971,6.32351 51.63882,42.26668 l 4.89085,27.90749 -26.5464,0 c -26.52659,0 -26.54628,-0.0167 -26.54628,-24.36366 0,-17.11427 -2.79356,-23.71261 -9.38844,-22.17546 -11.67155,2.72042 -17.16445,25.27626 -6.15543,25.27626 4.4182,0 8.03313,4.78414 8.03313,10.63143 0,8.74138 -5.00721,10.63143 -28.16532,10.63143 l -28.16532,0 0,-53.15714 z m 131.12952,44.9204 c -13.50251,-11.51474 -2.40458,-33.60447 18.77298,-37.36629 10.02964,-1.78161 22.32975,-1.44842 27.33374,0.74033 6.04988,2.64632 7.14588,1.74403 3.27137,-2.69296 -3.55951,-4.07612 -13.97562,-5.51908 -26.76875,-3.70823 -28.60539,4.04909 -37.18394,-10.80397 -10.40217,-18.01055 43.94921,-11.82607 78.23045,1.05475 78.23045,29.39431 0,9.8944 3.37986,19.46822 7.51077,21.27514 4.13092,1.80692 7.51076,6.5827 7.51076,10.61292 0,10.48956 -93.12523,10.27353 -105.45915,-0.24452 z m 49.12851,-13.02612 c 2.55307,-2.92363 -0.62716,-5.31571 -7.06746,-5.31571 -6.44017,0 -11.70941,2.39208 -11.70941,5.31571 0,2.92364 3.18033,5.31572 7.06745,5.31572 3.88709,0 9.15636,-2.39208 11.70942,-5.31572 z m 76.35932,17.71903 c -2.75396,-1.94905 -5.00718,-11.54982 -5.00718,-21.33498 0,-9.78512 -4.22479,-22.85539 -9.38845,-29.04495 -7.51076,-9.00307 -7.51076,-11.73509 0,-13.66016 5.16366,-1.32346 9.38845,-5.51608 9.38845,-9.31691 0,-3.80085 7.13326,-8.23085 15.85173,-9.84449 11.44895,-2.11895 16.90755,-0.0765 19.65285,7.3536 2.09062,5.6581 6.7868,10.28745 10.43588,10.28745 3.64912,0 6.6348,3.58809 6.6348,7.97356 0,4.38546 -3.37985,7.97357 -7.51078,7.97357 -4.13088,0 -7.51074,8.37226 -7.51074,18.60501 0,10.23274 3.37986,18.60499 7.51074,18.60499 4.13093,0 7.51078,3.58811 7.51078,7.97358 0,8.12946 -37.41736,11.61392 -47.56808,4.42973 z m 103.8987,-31.14524 0,-34.68907 26.28764,0.80957 c 14.45821,0.44547 31.64536,-0.79378 38.19358,-2.75348 21.16553,-6.33409 42.4935,13.08581 47.68021,43.41456 l 4.77261,27.90749 -22.79098,0 c -23.42265,0 -23.61043,-0.24559 -26.11631,-34.14762 -0.4161,-5.62476 -5.35577,-11.31204 -10.97787,-12.63842 -8.11557,-1.91455 -9.14794,2.65733 -5.00989,22.18727 l 5.21208,24.59877 -28.62557,0 -28.6255,0 0,-34.68907 z m 132.47087,27.97799 c -21.05104,-14.89883 6.61992,-45.1242 36.28446,-39.63391 9.18482,1.69991 13.4135,0.69179 10.60216,-2.52768 -2.57215,-2.94554 -14.40622,-3.97828 -26.29799,-2.295 -17.84555,2.52597 -21.62135,1.26912 -21.62135,-7.19722 0,-7.51684 7.03275,-11.19144 26.32073,-13.75239 37.76056,-5.01362 63.80828,8.0732 63.80828,32.05828 0,9.99279 3.37983,19.64709 7.51074,21.45401 4.13094,1.80692 7.51075,6.5827 7.51075,10.61292 0,9.25742 -91.26111,10.38026 -104.11778,1.28099 z m 47.78716,-14.55178 c 2.55306,-2.92363 -0.62715,-5.31571 -7.06747,-5.31571 -6.44016,0 -11.70943,2.39208 -11.70943,5.31571 0,2.92364 3.18037,5.31572 7.06749,5.31572 3.88711,0 9.15638,-2.39208 11.70941,-5.31572 z m 66.65792,-12.73979 0,-34.00266 70.10174,0.01 c 78.99393,0.01 79.3389,0.17595 87.98416,42.37507 l 5.09714,24.87779 -52.9569,0.11863 -52.95667,0.11846 0,-23.66737 c 0,-13.84291 -3.47163,-23.667 -8.36351,-23.667 -5.65613,0 -6.72282,7.74373 -3.29521,23.92073 l 5.06841,23.9207 -25.33963,0 -25.33953,0 0,-34.00264 z m 109.84473,2.10837 c 0,-8.77093 -3.37983,-15.94715 -7.51074,-15.94715 -8.35415,0 -10.36627,22.78571 -2.50357,28.35046 8.48542,6.00554 10.01431,4.11193 10.01431,-12.40331 z m 77.45505,27.71789 c -15.22963,-6.85372 -23.51318,-29.33105 -16.03621,-43.51497 8.81875,-16.72955 19.12089,-21.23021 48.82837,-21.33152 28.4413,-0.0967 47.4787,11.74549 47.4787,29.53473 0,11.54866 -3.214,12.90958 -30.4863,12.90958 -19.5359,0 -28.72119,2.0212 -25.57264,5.62695 2.76424,3.16546 14.14444,4.19198 26.01574,2.34663 23.3221,-3.62538 38.6548,6.16447 21.6168,13.80219 -12.7086,5.69701 -59.66719,6.10648 -71.84446,0.62641 z m 42.71696,-43.66504 c 0,-2.92363 -3.1805,-5.31571 -7.0674,-5.31571 -3.887,0 -9.1565,2.39208 -11.70941,5.31571 -2.553,2.92366 0.62703,5.31572 7.06741,5.31572 6.4403,0 11.7094,-2.39206 11.7094,-5.31572 z"
       id="path3353"
       inkscape:connector-curvature="0" />
  </g>
</svg>
